<svg width="90" height="113" viewBox="0 0 90 113" fill="none" xmlns="http://www.w3.org/2000/svg">
<path d="M28.0368 6.30951C33.1415 3.01367 46.6494 -1.93008 59.8432 4.66159C63.6129 2.69978 72.4715 -0.187994 77.7491 3.95534C79.0841 4.97548 79.9637 9.69951 72.8014 20.4345L73.5082 23.0241C76.6496 28.4387 82.791 40.5862 82.2255 45.8595C87.3303 57.238 93.723 84.6562 78.4559 103.301L73.9794 105.655L75.6286 108.951L74.9218 111.07H69.7385L63.6129 105.655H60.55L53.7175 107.068L45.9426 106.362L42.8798 104.478L39.3457 106.362L27.33 107.068L19.3194 104.714H18.6126L14.1362 108.245L9.1885 109.893L4.71204 108.951V105.185L7.06807 102.36L0.942383 80.2303L1.8848 71.2845L4.00523 50.8033C4.71204 46.4873 6.59686 37.4787 8.48169 35.972L15.7854 23.0241L13.9006 20.1991L9.4241 12.6658V10.3116L10.8377 7.01576L12.0157 6.07409L16.021 4.89701L27.5656 6.30951H28.0368Z" fill="white"/>
<rect x="25.4453" y="30.6041" width="1.88483" height="1.88333" fill="black"/>
<rect x="56.0737" y="28.7208" width="1.88483" height="1.88333" fill="black"/>
<rect x="26.3877" y="29.6625" width="1.88483" height="1.88333" fill="black"/>
<rect x="57.0161" y="27.7792" width="1.88483" height="1.88333" fill="black"/>
<rect x="33.9268" y="29.6625" width="1.88483" height="1.88333" fill="black"/>
<rect x="25.4453" y="32.4875" width="1.88483" height="1.88333" fill="black"/>
<rect x="56.0737" y="30.6041" width="1.88483" height="1.88333" fill="black"/>
<rect x="25.9163" y="33.9" width="1.88483" height="1.88333" fill="black"/>
<rect x="56.5447" y="32.0167" width="1.88483" height="1.88333" fill="black"/>
<path d="M49.9482 0.470703H52.3037V0.941406H54.6602V1.88379H59.3721V3.2959H61.2568V2.8252H62.1992V2.35449H64.084V1.41211H66.4404V0.941406H68.7959V0.470703H75.8643V1.41211H76.8066V2.35449H78.6914V4.2373H80.1055V5.65039H80.5762V8.00391H80.1055V10.3584H79.1631V12.7129H77.749V15.0664H76.8066V17.4209H75.3936V19.3037H74.4512V22.5996H75.3936V24.9541H76.3359V27.3086H77.749V29.6621H79.1631V32.0166H80.1055V33.4287H81.0479V34.8418H81.9902V36.7246H82.4609V38.6084H82.9326V40.9629H83.4033V47.083H84.8174V49.4375H85.2881V51.3213H85.7598V53.2041H86.2305V54.6162H86.7021V56.5H87.1729V58.3838H87.6445V60.2666H88.1152V62.1504H88.5869V64.0332H89.0576V65.4463H89.5293V68.7412H90V73.4502H89.5293V80.5127H89.0576V82.8662H88.5869V85.2207H88.1152V87.1045H87.6445V89.458H86.7021V91.3418H85.7598V93.6963H84.3457V95.5791H83.875V97.9336H82.9326V99.8164H81.9902V101.7H81.5186V102.171H80.5762V104.054H79.1631V105.467H77.2783V106.408H76.3359V107.821H77.2783V110.175H76.8066V112.529H74.4512V113H72.0947V112.529H70.21V112.059H67.8535V111.116H66.9111V110.175H65.9688V108.763H65.0264V107.821H64.084V107.35H62.6709V106.408H61.7275V107.35H59.3721V107.821H57.0156V108.292H47.5918V107.821H45.2354V106.879H43.3506V105.467H42.8799V106.879H40.5234V107.821H38.168V108.292H28.7441V105.938H38.168V105.467H40.5234V104.525H41.9375V103.112H44.2939V104.525H45.707V105.467H47.5918V105.938H57.0156V105.467H59.3721V104.996H61.2568V104.054H63.6133V104.996H65.0264V105.467H66.4404V106.408H67.3828V107.821H68.3252V108.763H69.2676V109.704H70.21V110.175H72.5664V110.646H74.4502V110.175H74.9219V107.821H73.9795V106.879H72.5654V104.525H74.9219V104.054H76.8066V103.112H78.2207V101.7H79.1631V99.8164H79.6338V99.3457H80.5762V97.4629H81.5186V95.5791H81.9902V93.2246H83.4033V91.3418H84.3457V88.9873H85.2881V87.1045H85.7598V84.75H86.2305V82.8662H86.7021V80.5127H87.1729V73.4502H87.6445V70.1543H87.1729V66.3877H86.7021V64.5039H86.2305V62.6211H85.7598V60.7373H85.2881V58.8545H84.8174V56.9707H84.3457V55.5586H83.875V53.6748H83.4033V51.792H82.9326V49.4375H82.4609V48.0254H81.0479V40.9629H80.5762V39.0791H80.1055V37.1963H79.6338V35.7832H78.6914V34.3711H77.749V32.0166H76.8066V29.6621H75.3926V27.3086H73.9795V24.9541H73.0371V23.542H72.0947V19.3037H73.0371V16.9502H74.4502V15.0664H75.3926V12.7129H76.8066V10.3584H77.749V8.47461H74.4502V8.00391H72.5654V8.47461H68.3252V9.41699H67.3828V10.8291H65.498V8.94629H66.4404V7.5332H67.3828V6.5918H72.5654V6.12109H74.4502V6.5918H77.749V4.70801H76.335V3.7666H74.4502V2.8252H68.7959V3.2959H66.4404V3.7666H64.5557V4.70801H63.6133V5.17871H61.2568V5.65039H58.9014V4.2373H54.6602V3.2959H52.3037V2.8252H49.9482V2.35449H40.5234V2.8252H38.168V3.2959H36.2832V4.70801H33.9268V5.17871H32.042V6.12109H30.1572V6.5918H29.2148V7.5332H26.8584V7.0625H24.5029V6.5918H12.7227V7.5332H11.7803V8.47461H15.0791V8.94629H16.4922V9.41699H17.9062V10.3584H19.3193V11.2998H20.7334V11.7705H21.6758V13.6543H19.791V13.1836H18.8486V12.2412H17.4346V11.2998H16.0205V10.8291H14.6074V10.3584H11.3086V9.8877H10.3662V12.2412H11.3086V14.5957H12.251V16.9502H13.665V19.3037H17.4346V21.6582H16.4922V24.0127H16.0215V26.3662H14.6074V28.25H13.665V30.6045H12.251V32.0166H11.3086V33.9004H10.3662V35.7832H9.42383V38.1377H8.48145V40.4912H7.53906V42.8457H6.59668V45.2002H6.12598V47.5537H5.6543V52.2627H4.71191V56.9707H4.24121V61.6787H3.76953V68.7412H3.29883V71.0957H2.82715V75.8037H2.35645V80.5127H2.82715V82.8662H3.29883V85.2207H3.76953V87.5752H4.24121V89.458H4.71191V90.4004H5.18359V91.8125H5.6543V94.167H6.12598V94.6377H6.59668V96.9912H7.06836V98.875H7.53906V100.759H8.48145V103.112H8.01074V104.996H6.12598V105.938H5.6543V107.821H6.12598V108.292H8.48145V108.763H10.8379V107.821H12.7227V107.35H13.665V106.879H14.6074V105.938H16.0205V104.525H17.9062V103.583H20.2617V104.525H24.5029V105.467H26.3877V105.938H28.7432V108.292H26.3877V107.821H24.0312V106.879H19.791V105.938H18.377V106.879H16.9639V108.292H16.0215V109.233H15.0781V109.704H13.1934V110.175H10.8379V111.116H8.48145V110.646H6.12598V110.175H3.76953V108.292H3.29883V105.938H3.76953V103.583H5.6543V102.642H6.12598V101.229H5.18359V99.3457H4.71191V98.875H4.24121V96.5205H3.76953V94.167H3.29883V92.7539H2.82715V91.8125H2.35645V89.9287H1.88477V87.5752H1.41406V85.2207H0.942383V82.8662H0.47168V80.5127H0V75.8037H0.47168V71.0957H0.942383V68.7412H1.41406V61.6787H1.88477V56.9707H2.35645V52.2627H3.29883V47.5537H3.76953V45.2002H4.24121V42.8457H5.18359V40.4912H6.12598V38.1377H7.06836V35.7832H8.01074V33.4287H8.95312V31.5459H9.89551V29.6621H11.3086V28.25H12.251V25.8955H13.665V24.0127H14.1357V21.6582H12.7227V19.3037H11.3086V16.9502H9.89551V14.5957H8.95312V12.2412H8.01074V9.8877H9.42383V7.5332H10.3662V5.17871H12.7227V4.2373H24.5029V4.70801H26.8584V5.17871H27.8018V4.2373H29.6865V3.7666H31.5713V2.8252H33.9268V2.35449H35.8115V0.941406H38.168V0.470703H40.5234V0H49.9482V0.470703ZM47.1396 75.3066L45.4746 76.9697L43.8086 75.3057L45.4736 73.6426L47.1396 75.3066ZM61.4707 65.21L61 66.0254L63.04 67.2021L62.8047 67.6113L64.8447 68.7881L64.6094 69.1953L66.2412 70.1377L65.0635 72.1758L63.0234 70.999L63.2588 70.5918L61.626 69.6494L61.8613 69.2422L59.8213 68.0654L60.293 67.249L54.9883 64.1885L54.2812 65.4121L53.873 65.1768L53.4014 65.9922L54.2178 66.4629L53.5107 67.6865L55.1436 68.6279L54.6729 69.4434L56.3047 70.3848L55.833 71.2002L57.4658 72.1426L56.9941 72.957L58.627 73.8994L57.4492 75.9385L55.4082 74.7617L55.8799 73.9453L54.2471 73.0039L54.7188 72.1885L53.0859 71.2471L53.5576 70.4307L51.9258 69.4893L52.6328 68.2656L51 67.3242L51.7061 66.1016L50.8896 65.6309L52.0684 63.5918L52.4766 63.8281L53.4189 62.1963L54.6426 62.9023L55.3496 61.6797L61.4707 65.21ZM46.4746 61.3242L46.8076 60.9912L50.1387 64.3193L49.4727 64.9854L50.8057 66.3174L50.1387 66.9834L50.8047 67.6484L49.4727 68.9805L50.1387 69.6465L48.8057 70.9785L49.4717 71.6436L48.1387 72.9756L48.4727 73.3086L46.8076 74.9727L45.1416 73.3086L46.4746 71.9766L46.1416 71.6436L47.4746 70.3125L46.8076 69.6465L48.1406 68.3145L47.4736 67.6484L48.1406 66.9824L47.4746 66.3174L48.1406 65.6514L46.8076 64.3193L45.4746 62.9863L45.1406 63.3203L44.8076 62.9873L43.4756 64.3193L41.8096 62.6543L43.4756 60.9902L43.8086 61.3232L45.1406 59.9912L46.4746 61.3242ZM41.1426 67.9824L39.4766 69.6465L39.1436 69.3125L37.8105 70.6445L36.1455 68.9805L37.8115 67.3164L38.1445 67.6494L39.4766 66.3184L41.1426 67.9824ZM43.4746 64.3193L42.1426 65.6514L42.4746 65.9834L40.8096 67.6484L39.1436 65.9834L40.4766 64.6523L40.1436 64.3193L41.8096 62.6553L43.4746 64.3193ZM78.2197 8.00391H78.2207V6.5918H78.2197V8.00391Z" fill="black"/>
<rect x="27.3301" y="28.7208" width="1.88483" height="1.88333" fill="black"/>
<rect x="57.9585" y="26.8375" width="1.88483" height="1.88333" fill="black"/>
<rect width="1.88483" height="1.88333" transform="matrix(1 0 0 -1 27.3301 36.725)" fill="black"/>
<rect width="1.88483" height="1.88333" transform="matrix(1 0 0 -1 57.9585 34.8417)" fill="black"/>
<rect x="29.2148" y="28.25" width="1.88483" height="1.88333" fill="black"/>
<rect x="59.8433" y="26.3667" width="1.88483" height="1.88333" fill="black"/>
<rect width="1.88483" height="1.88333" transform="matrix(1 0 0 -1 29.2148 37.1958)" fill="black"/>
<rect width="1.88483" height="1.88333" transform="matrix(1 0 0 -1 59.8433 35.3125)" fill="black"/>
<rect x="31.0996" y="28.25" width="1.88483" height="1.88333" fill="black"/>
<rect x="61.728" y="26.3667" width="1.88483" height="1.88333" fill="black"/>
<rect width="1.88483" height="1.88333" transform="matrix(1 0 0 -1 31.0996 37.1958)" fill="black"/>
<rect width="1.88483" height="1.88333" transform="matrix(1 0 0 -1 61.728 35.3125)" fill="black"/>
<rect x="32.9844" y="28.7208" width="1.88483" height="1.88333" fill="black"/>
<rect x="63.6128" y="26.8375" width="1.88483" height="1.88333" fill="black"/>
<rect width="1.88483" height="1.88333" transform="matrix(1 0 0 -1 32.9844 36.725)" fill="black"/>
<rect width="1.88483" height="1.88333" transform="matrix(1 0 0 -1 63.6128 34.8417)" fill="black"/>
<rect x="34.8694" y="30.6041" width="1.88483" height="1.88333" fill="black"/>
<rect x="65.4976" y="28.7208" width="1.88483" height="1.88333" fill="black"/>
<rect x="34.8694" y="30.6041" width="1.88483" height="1.88333" fill="black"/>
<rect x="65.4976" y="28.7208" width="1.88483" height="1.88333" fill="black"/>
<rect x="65.0266" y="27.7792" width="1.88483" height="1.88333" fill="black"/>
<rect x="34.8694" y="32.4875" width="1.88483" height="1.88333" fill="black"/>
<rect x="65.4976" y="30.6041" width="1.88483" height="1.88333" fill="black"/>
<rect x="33.9268" y="33.9" width="1.88483" height="1.88333" fill="black"/>
<rect x="64.5552" y="32.0167" width="1.88483" height="1.88333" fill="black"/>
<path d="M48.5343 43.7875L44.2935 47.3187V48.9666L45.0003 50.1437L46.8851 50.85H52.5396L54.1888 48.7312V46.3771L49.4767 43.7875H48.5343Z" fill="#F85E5E"/>
<path d="M51.3611 43.7872H52.3035V44.7296H53.7175V45.2003H55.1316V45.671H55.6023V45.2003H56.5447V44.2579H57.0164V42.8458H58.9011V44.7296H58.4294V46.1417H57.4871V47.0831H56.074V47.5538H54.1882V47.0831H53.2458V46.6124H51.8328V45.671H50.4187V44.7296H49.0056V45.2003H47.5916V46.1417H46.1785V47.0831H44.7644V48.0245H40.9949V47.0831H40.0525V46.1417H39.1101V44.2579H40.9949V45.2003H41.9373V46.1417H44.2937V45.2003H45.7068V44.2579H47.1208V43.3165H48.0632V42.8458H51.3611V43.7872Z" fill="black"/>
<rect x="48.5342" y="40.9625" width="2.35603" height="2.35417" fill="#F9A7A7"/>
<rect x="46.1782" y="40.0209" width="2.35603" height="2.35417" fill="#F9A7A7"/>
<rect x="47.1206" y="40.4917" width="2.35603" height="2.35417" fill="#F9A7A7"/>
<rect x="50.4192" y="40.0209" width="2.35603" height="2.35417" fill="#F9A7A7"/>
<rect x="49.4768" y="40.4917" width="2.35603" height="2.35417" fill="#F9A7A7"/>
<rect x="48.5342" y="40.0209" width="2.35603" height="2.35417" fill="#F9A7A7"/>
<path d="M29.4243 38.1378H31.2485V39.0802H32.7065V40.4923H33.8013V44.2589H32.7065V45.2003H30.8833V45.671H29.0601V46.1427H23.5894V45.671H21.7661V44.7296H20.3071V43.7882H19.2134V42.3751H18.8481V40.0216H19.5776V38.6085H21.0366V38.1378H22.1304V37.6671H23.9536V37.1964H29.4243V38.1378ZM70.5454 36.7247H72.3687V37.6671H73.8276V39.0792H74.9224V42.8458H73.8276V43.7872H72.0044V44.2579H70.1812V44.7296H64.7104V44.2579H62.8872V43.3165H61.4282V42.3751H60.3335V40.962H59.9692V38.6085H60.6987V37.1954H62.1577V36.7247H63.2515V36.254H65.0747V35.7833H70.5454V36.7247Z" fill="#F9A7A7"/>
<rect x="48.5342" y="41.4333" width="1.88483" height="1.88333" fill="black"/>
<path d="M30.8639 29.1916C28.6021 28.815 27.0943 30.7611 26.623 31.7812V33.6645L27.5655 35.077L29.4503 36.2541H32.2775C32.8273 35.9402 34.1624 35.2183 35.1048 34.8416C36.0472 34.465 35.6545 32.4875 35.3404 31.5458C34.7906 30.918 33.1257 29.5683 30.8639 29.1916Z" fill="black"/>
<path d="M61.7282 27.3561C59.4664 26.9794 57.9585 28.9255 57.4873 29.9456V31.829L58.4297 33.2415L60.3145 34.4186H63.1418C63.6915 34.1047 65.0266 33.3827 65.969 33.0061C66.9114 32.6294 66.5188 30.6519 66.2046 29.7102C65.6549 29.0824 63.99 27.7327 61.7282 27.3561Z" fill="black"/>
<rect x="26.8586" y="30.1333" width="1.88483" height="1.88333" fill="white"/>
<rect x="57.4873" y="28.25" width="1.88483" height="1.88333" fill="white"/>
<rect x="27.8013" y="31.075" width="1.88483" height="1.88333" fill="white"/>
<rect x="27.8013" y="31.075" width="1.88483" height="1.88333" fill="white"/>
<rect x="32.9844" y="33.9" width="1.88483" height="1.88333" fill="white"/>
<rect x="42.8799" y="47.5542" width="1.88483" height="1.88333" fill="black"/>
<rect x="44.2935" y="49.4375" width="1.88483" height="1.88333" fill="black"/>
<rect x="45.707" y="49.9083" width="1.88483" height="1.88333" fill="black"/>
<rect x="47.5918" y="49.9083" width="1.88483" height="1.88333" fill="black"/>
<rect x="49.4768" y="49.9083" width="1.88483" height="1.88333" fill="black"/>
<rect x="51.3616" y="49.9083" width="1.88483" height="1.88333" fill="black"/>
<rect x="52.7751" y="48.4958" width="1.88483" height="1.88333" fill="black"/>
<rect x="53.7175" y="47.0834" width="1.88483" height="1.88333" fill="black"/>
<rect x="58.4297" y="29.1917" width="1.88483" height="1.88333" fill="white"/>
<rect x="63.6128" y="32.0167" width="1.88483" height="1.88333" fill="white"/>
</svg>
